<svg width="145" height="20" viewBox="0 0 145 20" fill="none" xmlns="http://www.w3.org/2000/svg">
<path d="M0 19.7006H3.94012V14.4046L5.87833 12.0387L10.9832 19.7006H15.6968L8.6992 9.40897L15.6149 1.06465H10.8922L4.18581 9.28157H3.94012V1.06465H0V19.7006Z" fill="#FF577F"/>
<path d="M23.4503 19.9736C26.9081 19.9736 29.2376 18.2902 29.7836 15.6968L26.1983 15.4602C25.8071 16.5248 24.8061 17.0799 23.514 17.0799C21.5757 17.0799 20.3473 15.7969 20.3473 13.7131V13.704H29.8655V12.6393C29.8655 7.88934 26.99 5.54165 23.2956 5.54165C19.1826 5.54165 16.5164 8.46261 16.5164 12.7758C16.5164 17.2073 19.1462 19.9736 23.4503 19.9736ZM20.3473 11.3017C20.4292 9.70925 21.6394 8.43531 23.3593 8.43531C25.0427 8.43531 26.2074 9.63646 26.2165 11.3017H20.3473Z" fill="#FF577F"/>
<path d="M36.7841 11.6202C36.7932 9.81845 37.8669 8.7629 39.432 8.7629C40.9881 8.7629 41.9253 9.78205 41.9162 11.4928V19.7006H45.7926V10.8012C45.7926 7.54355 43.8817 5.54165 40.9699 5.54165C38.8952 5.54165 37.3937 6.5608 36.7659 8.18962H36.6021V5.72364H32.9076V19.7006H36.7841V11.6202Z" fill="#FF577F"/>
<path d="M49.2875 19.7006H61.0351V16.6067H54.3742V16.5066L60.7985 8.24422V5.72364H49.5241V8.81749H56.1304V8.91759L49.2875 17.3893V19.7006Z" fill="#FF577F"/>
<path d="M64.5118 19.7006H68.3882V5.72364H64.5118V19.7006ZM66.4591 3.92192C67.6147 3.92192 68.5611 3.03926 68.5611 1.95641C68.5611 0.88266 67.6147 0 66.4591 0C65.3125 0 64.3662 0.88266 64.3662 1.95641C64.3662 3.03926 65.3125 3.92192 66.4591 3.92192Z" fill="#FF577F"/>
<path d="M78.3756 19.9736C81.8334 19.9736 84.1629 18.2902 84.7089 15.6968L81.1237 15.4602C80.7324 16.5248 79.7314 17.0799 78.4393 17.0799C76.5011 17.0799 75.2726 15.7969 75.2726 13.7131V13.704H84.7908V12.6393C84.7908 7.88934 81.9153 5.54165 78.2209 5.54165C74.1079 5.54165 71.4417 8.46261 71.4417 12.7758C71.4417 17.2073 74.0715 19.9736 78.3756 19.9736ZM75.2726 11.3017C75.3545 9.70925 76.5648 8.43531 78.2846 8.43531C79.968 8.43531 81.1328 9.63646 81.1419 11.3017H75.2726Z" fill="#FF577F"/>
<path d="M94.3489 19.7006H98.289V12.0023H106.288V19.7006H110.219V1.06465H106.288V8.7538H98.289V1.06465H94.3489V19.7006Z" fill="#FF577F"/>
<path d="M122.87 13.7495C122.879 15.624 121.596 16.6067 120.204 16.6067C118.739 16.6067 117.792 15.5785 117.783 13.9315V5.72364H113.907V14.623C113.916 17.8898 115.827 19.8826 118.639 19.8826C120.741 19.8826 122.251 18.7997 122.879 17.1618H123.025V19.7006H126.746V5.72364H122.87V13.7495Z" fill="#FF577F"/>
<path d="M130.432 19.7006H134.254V17.4621H134.427C134.964 18.6268 136.138 19.9281 138.394 19.9281C141.579 19.9281 144.063 17.4075 144.063 12.7303C144.063 7.92574 141.47 5.54165 138.404 5.54165C136.065 5.54165 134.946 6.93388 134.427 8.07133H134.309V1.06465H130.432V19.7006ZM134.227 12.7121C134.227 10.2188 135.282 8.6264 137.166 8.6264C139.086 8.6264 140.105 10.2916 140.105 12.7121C140.105 15.1508 139.068 16.8433 137.166 16.8433C135.301 16.8433 134.227 15.2054 134.227 12.7121Z" fill="#FF577F"/>
</svg>
